<svg width="35" height="35" viewBox="0 0 35 35" fill="none" xmlns="http://www.w3.org/2000/svg">
<path d="M6.59652 27.207C6.59652 27.812 7.08529 28.3008 7.69027 28.3008H27.3094C27.9144 28.3008 28.4032 27.812 28.4032 27.207V19.2432C28.4032 13.2207 23.5223 8.33984 17.4998 8.33984C11.4774 8.33984 6.59652 13.2207 6.59652 19.2432V27.207ZM9.05746 19.2432C9.05746 14.5811 12.8377 10.8008 17.4998 10.8008C22.162 10.8008 25.9422 14.5811 25.9422 19.2432V25.8398H13.8084V19.9951C13.8084 19.8071 13.6546 19.6533 13.4666 19.6533H11.9627C11.7747 19.6533 11.6209 19.8071 11.6209 19.9951V25.8398H9.05746V19.2432ZM7.41342 10.6128L8.76693 9.25928C8.87289 9.15332 8.87289 8.979 8.76693 8.87305L6.44613 6.55225C6.39474 6.50136 6.32534 6.47281 6.25302 6.47281C6.18069 6.47281 6.11129 6.50136 6.0599 6.55225L4.70639 7.90576C4.6555 7.95715 4.62695 8.02655 4.62695 8.09888C4.62695 8.1712 4.6555 8.2406 4.70639 8.29199L7.02719 10.6128C7.13315 10.7188 7.30404 10.7188 7.41342 10.6128ZM30.3001 7.90576L28.9466 6.55225C28.8952 6.50136 28.8258 6.47281 28.7535 6.47281C28.6812 6.47281 28.6118 6.50136 28.5604 6.55225L26.2396 8.87305C26.1887 8.92444 26.1602 8.99384 26.1602 9.06616C26.1602 9.13849 26.1887 9.20789 26.2396 9.25928L27.5931 10.6128C27.6991 10.7188 27.8734 10.7188 27.9793 10.6128L30.3001 8.29199C30.4061 8.18262 30.4061 8.01172 30.3001 7.90576ZM28.4373 30.4883H6.56234C5.95736 30.4883 5.46859 30.9771 5.46859 31.582V32.4023C5.46859 32.5527 5.59164 32.6758 5.74203 32.6758H29.2577C29.408 32.6758 29.5311 32.5527 29.5311 32.4023V31.582C29.5311 30.9771 29.0423 30.4883 28.4373 30.4883ZM16.5428 6.15234H18.4569C18.6073 6.15234 18.7303 6.0293 18.7303 5.87891V2.59766C18.7303 2.44727 18.6073 2.32422 18.4569 2.32422H16.5428C16.3924 2.32422 16.2694 2.44727 16.2694 2.59766V5.87891C16.2694 6.0293 16.3924 6.15234 16.5428 6.15234Z" fill="white"/>
</svg>
